<svg width="186" height="183" viewBox="0 0 186 183" fill="none" xmlns="http://www.w3.org/2000/svg">
<path fill-rule="evenodd" clip-rule="evenodd" d="M185.89 91.0688C185.455 87.8494 185.02 84.6221 184.585 81.4028C182.473 73.3187 180.155 64.7997 177.006 57.6174C174.016 50.8148 169.435 44.1466 164.982 38.5384C162.545 35.8411 160.1 33.1359 157.664 30.4386C162.189 33.9032 167.189 39.0921 170.472 43.767C172.212 46.4643 173.96 49.1695 175.701 51.8668C174.316 44.6845 167.6 39.7803 163.676 34.8761C150.718 18.7001 133.607 9.35051 110.357 3.25981C103.688 1.51169 84.4405 -1.9608 77.1625 1.43259C83.871 1.60661 90.5794 1.78063 97.2879 1.95465C112.983 4.92091 128.251 10.2681 139.888 17.1102C144.413 19.768 150.22 21.7771 153.74 25.4711L153.74 25.7321L153.479 25.7321C147.38 22.4258 141.28 19.1115 135.181 15.8051C132.048 14.4999 128.908 13.1948 125.775 11.8817C128.212 12.7518 130.656 13.6219 133.093 14.492L132.571 13.7089C128.346 12.032 124.027 8.95501 118.98 8.21938L119.763 9.2635C123.805 10.4975 126.408 13.2185 129.96 15.0141C143.978 22.1094 159.262 28.0972 165.765 42.4539C160.48 39.1238 157.324 33.1755 152.435 29.3866C142.602 21.7534 129.723 15.0774 116.63 11.0907C104.218 7.31764 83.4596 8.40131 71.9334 11.6128C39.2613 20.7093 21.4697 36.3395 9.72992 66.2314C-6.10772 106.557 20.8131 146.099 45.2736 160.835C52.2985 165.067 59.8693 166.831 69.3228 168.935C81.9644 171.759 101.093 173.887 114.281 169.718C136.304 162.757 156.976 148.068 165.512 127.645C169.957 117.006 175.93 94.4859 173.351 80.6039C168.526 54.5958 151.098 32.5743 129.438 23.106C103.988 11.9845 50.3366 12.0953 36.6507 34.0851C37.5209 33.389 38.3911 32.6929 39.2613 31.9969C42.1013 27.5356 51.5312 23.367 56.7761 21.5398C59.5449 20.5748 62.0527 21.2788 65.399 20.4957C68.9668 19.4516 72.5425 18.4075 76.1183 17.3633C90.9671 14.1519 111.52 17.1814 122.642 21.5477C147.831 31.4432 164.277 50.878 171.777 78.2546C174.119 86.7895 171.872 97.8951 170.211 104.911C164.372 129.519 158.257 142.357 140.94 155.353C133.718 160.772 123.536 165.478 114.281 168.421C102.161 172.273 84.5434 171.173 72.4634 168.16C65.5967 166.451 58.7617 165.739 52.8602 163.192C33.0275 154.626 17.3244 136.061 9.99888 115.107C-1.97033 80.8965 17.9889 40.8877 38.225 27.2983C83.5624 -3.15521 147.301 9.27141 170.211 53.1799C179.783 71.5311 181.887 91.2507 176.223 114.071C174.403 121.388 173.739 127.502 169.166 131.845L169.166 130.801C172.552 124.251 174.158 115.993 175.962 108.328C178.027 99.5641 177.702 87.098 175.962 78.5393C170.045 49.3831 157.64 34.5122 135.189 22.0935C128.789 18.5499 121.835 14.3575 113.758 12.6885C110.713 12.4275 107.659 12.1665 104.613 11.9054C102.738 11.5416 98.4429 10.7743 96.2515 11.6444C135.759 16.2401 162.442 35.1846 173.082 69.1185C176.041 78.5552 176.864 93.0068 174.91 103.614C168.043 140.957 154.674 156.16 123.157 168.69C112.113 173.08 95.4288 177.051 79.2431 173.657C67.614 171.221 55.6211 168.967 45.2657 164.513C19.0411 153.226 -6.65358 104.366 7.1035 64.942C12.7677 48.7265 22.2292 34.267 34.8075 24.957C55.6369 9.54035 94.7564 -0.347159 124.731 13.4558C120.253 4.44631 85.469 4.52541 72.9776 7.4442C39.8547 15.1881 18.8828 30.9527 7.37246 60.2356C5.15741 65.8675 4.0657 72.1322 2.92654 78.7925C2.11963 83.5305 3.21923 87.8811 1.62124 91.3377L0.838055 90.5546C1.41555 88.9647 2.0959 85.6346 1.36018 84.282L0.0548669 85.0651C-0.063801 91.4168 -0.324849 111.16 3.45657 115.115L3.71762 115.115C2.86325 107.743 1.16239 100.513 1.10702 91.8598L2.15127 92.1208C1.14659 122.954 24.1119 157.054 46.0647 166.079C56.602 169.038 67.1473 172.004 77.6925 174.962C107.778 181.615 145.877 163.904 158.194 149.611C162.244 144.912 165.076 139.739 168.652 134.455C171.097 130.84 174.111 127.566 175.97 123.215C177.172 120.407 176.405 117.583 177.275 114.332C179.83 104.793 183.058 93.0621 180.677 81.4028C178.517 70.8508 175.709 59.7531 170.749 51.6137C168.731 48.2994 165.345 46.2191 163.692 42.4697L163.953 42.4697C168.613 45.1908 171.168 50.799 173.881 55.537C187.884 79.9948 181.674 119.909 168.391 139.953C151.699 165.138 113.743 185.459 70.8971 175.231C63.5004 173.467 56.871 172.661 50.5106 169.742C43.1218 166.356 35.8517 162.29 29.8632 157.457C27.5136 154.76 25.1562 152.055 22.8066 149.358C23.2418 150.228 23.6768 151.098 24.1119 151.968L23.8509 151.968C22.1975 150.963 21.6437 149.532 19.405 149.097C20.9318 153.676 36.3264 164.007 41.3577 166.609C74.9474 183.964 118.355 183.655 147.997 162.686C158.423 155.306 166.864 145.513 173.612 134.463C175.44 130.801 177.275 127.146 179.102 123.484C177.805 129.67 173.952 135.222 171.002 139.945C168.075 144.635 165.037 150.671 160.805 154.056C140.537 170.295 105.128 189.121 65.929 178.364C55.6923 175.556 43.7626 171.482 35.0844 166.34C23.8588 159.688 16.4937 147.633 11.0352 135.238C9.99098 132.28 8.94673 129.314 7.90249 126.355L7.11932 126.355L6.85826 126.877C18.6139 171.98 73.0172 194.619 127.088 175.745C161.604 163.698 186.056 136.86 185.89 91.0688Z" fill="url(#paint0_radial_44_3085)" fill-opacity="0.15"/>
<path fill-rule="evenodd" clip-rule="evenodd" d="M170.211 88.7196C168.209 97.2545 166.2 105.797 164.198 114.332C158.621 132.098 147.72 146.763 132.832 155.361C126.645 157.885 120.459 160.416 114.273 162.939C106.148 165.004 95.6107 168.176 84.7411 166.341C62.0447 162.496 39.7755 153.574 28.5499 138.118C26.8966 134.281 25.2353 130.453 23.5819 126.616C16.6836 114.894 12.3721 102.515 13.6537 83.499L13.3926 83.499C10.3786 101.115 15.584 115.471 22.2766 126.878C24.5075 130.682 25.3935 135.753 28.0278 139.162C43.7626 159.53 82.7001 174.298 116.891 163.469C144.168 154.824 158.851 137.026 166.548 108.59C168.272 102.214 170.234 96.9381 170.211 88.7275L170.211 88.7196Z" fill="url(#paint1_radial_44_3085)" fill-opacity="0.15"/>
<path fill-rule="evenodd" clip-rule="evenodd" d="M168.636 86.6313C168.027 82.4469 167.418 78.2704 166.809 74.086C164.412 64.5782 159.618 55.3314 154.262 48.4734C141.241 31.7754 106.306 13.9225 74.544 19.7284C69.3703 20.6776 64.3389 20.3375 59.9088 22.0777C55.2255 23.9207 51.8001 27.3378 47.8842 29.9165C43.0428 33.1122 38.1459 35.4219 34.8154 40.1125L34.8154 40.8956L35.8596 40.1125C45.0047 34.4094 52.2669 25.6372 63.5636 22.0777C67.2264 21.6426 70.8812 21.2076 74.544 20.7725C107.525 15.1485 143.677 34.0218 156.09 52.6578C160.362 59.0649 164.159 67.5286 166.018 75.9132C166.825 79.5518 166.706 90.2145 168.628 92.3739L168.628 86.6234L168.636 86.6313Z" fill="url(#paint2_radial_44_3085)" fill-opacity="0.15"/>
<path fill-rule="evenodd" clip-rule="evenodd" d="M165.765 84.7962C161.303 75.1223 159.246 65.4483 154.001 56.8344C147.253 45.7603 134.406 35.327 122.112 29.9166C89.2425 15.4492 45.9303 33.0569 32.988 55.0071C31.8567 58.6695 30.7255 62.3239 29.5863 65.9862C32.102 64.0562 32.102 58.5745 33.7712 55.7902C35.7727 53.2669 37.782 50.7357 39.7835 48.2124C50.7796 34.5044 72.4793 27.2667 94.6694 25.7401C130.245 23.2801 157.696 56.4705 164.451 83.499C165.678 88.4111 164.523 95.625 163.668 99.6987C159.634 119.031 151.889 134.811 137.009 143.077L144.326 135.76C146.502 132.715 148.685 129.662 150.861 126.616C159.08 113.169 162.806 84.3849 155.045 67.0303C148.74 52.9268 135.885 39.3532 120.546 34.362C102.224 28.4058 85.7538 30.5257 69.0538 36.1892C62.9229 38.2696 57.5277 39.7725 52.8523 43.245C47.8051 46.9864 42.9399 53.9472 39.7835 59.4447L41.3498 57.8785C45.416 55.4738 48.6041 48.0938 52.8523 44.8111C60.9373 38.5622 74.2118 35.2084 85.5244 32.5269C118.125 24.7988 148.313 48.7029 155.306 71.2068C157.616 78.6264 159.563 89.7874 157.917 99.4297C153.06 127.929 139.896 143.75 116.883 154.048C107.374 158.304 92.5334 161.943 77.4157 159.277C71.3164 157.885 65.2171 156.493 59.1177 155.092C48.5567 150.948 38.6601 144.58 32.1969 136.275C30.1955 133.316 28.1861 130.35 26.1846 127.392L25.9236 127.392L25.9236 128.436C33.7079 145.648 51.7369 155.148 72.1866 159.799C76.7274 160.827 81.6164 159.751 86.8217 160.582C93.6805 161.674 102.675 160.724 108.252 159.016C140.331 149.176 165.931 127.32 165.757 84.7962L165.765 84.7962Z" fill="url(#paint3_radial_44_3085)" fill-opacity="0.15"/>
<path fill-rule="evenodd" clip-rule="evenodd" d="M161.319 84.7961C160.021 81.379 159.665 77.4714 158.708 74.6001L158.447 74.6001C158.969 77.1234 159.491 79.6546 160.013 82.1779C160.275 87.0584 160.536 91.9388 160.797 96.8114C160.971 92.801 161.145 88.7986 161.319 84.7882L161.319 84.7961Z" fill="url(#paint4_radial_44_3085)" fill-opacity="0.15"/>
<path fill-rule="evenodd" clip-rule="evenodd" d="M154.001 84.013C152.087 79.267 152.158 74.2046 150.339 69.9016C143.559 53.8522 129.612 43.3081 111.393 38.2774C106.718 36.9881 95.16 31.6725 88.3961 34.354L88.3961 34.615C114.431 35.4456 140.181 55.5291 146.423 75.9053C148.266 81.9406 147.483 89.4235 148.511 96.2894C148.424 98.8997 148.337 101.518 148.25 104.128L148.511 104.128C152.435 77.7641 143.947 61.8176 129.43 50.5537C125.229 47.2948 115.649 42.9047 112.967 38.7915C129.209 44.9218 143.14 55.1653 149.555 70.9378C153.234 79.971 153.59 93.2598 150.861 103.345C148.519 112.014 147.38 119.418 143.282 126.078C136.431 137.216 121.796 145.901 107.999 149.864C96.1963 153.257 85.5957 152.094 75.0663 149.342C69.315 147.602 63.5638 145.853 57.8126 144.113C47.7815 139.003 35.5987 121.475 31.936 109.879C31.5009 106.129 31.0658 102.388 30.6307 98.6386C29.4915 92.8723 28.8982 84.5826 30.1086 77.9935C31.5721 70.0044 36.5559 66.7218 38.4704 59.6977L38.2093 59.6977L37.6872 59.9587C35.3772 66.4528 30.5595 69.5773 29.0643 77.4715C27.7115 84.6221 28.7637 94.1774 29.8475 100.205C30.1086 103.25 30.3696 106.303 30.6307 109.349C34.2064 122.226 46.1361 138.355 56.5073 144.627C61.9262 147.902 69.1885 148.701 75.5884 150.639C88.7284 154.618 104.178 153.131 115.839 148.29C140.782 137.928 154.144 119.521 154.001 83.9972L154.001 84.013Z" fill="url(#paint5_radial_44_3085)" fill-opacity="0.15"/>
<path fill-rule="evenodd" clip-rule="evenodd" d="M147.206 96.2972C146.771 92.5479 146.335 88.8064 145.9 85.0571L145.639 85.5792L145.639 101.518C141.526 119.861 130.814 135.396 114.273 141.503C107.936 143.844 102.24 142.95 94.6693 144.113C65.1853 148.646 49.6325 129.084 41.8719 110.401C40.7406 108.487 39.6093 106.564 38.4702 104.65C34.7837 95.3638 35.8833 80.9043 39.5144 72.5039L38.7312 73.026C37.3943 77.2736 35.3533 82.1304 34.8074 87.1374C32.4342 108.969 53.3822 136.741 68.5237 142.278C73.1832 143.979 77.5501 144.572 82.8978 145.41C87.7789 145.323 92.6599 145.236 97.533 145.149C103.561 144.184 108.292 144.564 113.212 143.061C129.24 138.157 137.483 126.055 143.535 111.176C145.347 106.715 147.221 102.752 147.198 96.2814L147.206 96.2972Z" fill="url(#paint6_radial_44_3085)" fill-opacity="0.15"/>
<path fill-rule="evenodd" clip-rule="evenodd" d="M143.812 90.0244C142 85.2704 143.25 78.7921 141.462 74.3467C133.528 54.635 103.197 30.0823 72.2023 38.8071C66.9732 40.2783 60.9926 42.6513 57.045 45.6018C54.5215 47.951 51.99 50.3082 49.4664 52.6575L49.9885 51.8744C45.8432 54.366 42.3308 60.7494 39.7914 64.9417C34.7046 73.358 29.5942 84.2501 31.9516 98.6542C32.545 102.261 31.8725 105.251 32.9959 108.059C34.6572 112.204 37.5447 115.985 39.7913 119.56C43.288 125.129 46.0331 129.915 51.0327 133.933C55.0119 137.136 58.1367 142.8 64.3626 143.599L64.3626 143.338L64.1016 142.816C53.9123 139.612 37.0858 117.322 33.7791 106.754C31.3108 98.8519 32.1652 84.2263 34.5622 77.226C41.0571 58.2499 58.1367 42.2558 80.042 38.285C89.6854 36.5369 98.2134 40.397 104.352 42.4694C124.501 49.272 149.207 71.072 141.47 101.794C139.39 110.045 135.877 117.203 131.273 122.962C128.718 126.165 120.973 130.294 119.771 133.941L120.032 133.941C131.028 128.222 138.907 116.752 142.246 103.361C142.768 98.9152 143.29 94.4777 143.812 90.0323L143.812 90.0244Z" fill="url(#paint7_radial_44_3085)" fill-opacity="0.15"/>
<path fill-rule="evenodd" clip-rule="evenodd" d="M140.671 69.3793C139.73 67.1012 139.754 64.831 138.061 63.3677L137.8 63.3677L137.8 63.6287C138.757 66.326 139.714 69.0312 140.671 71.7286L140.671 69.3793Z" fill="url(#paint8_radial_44_3085)" fill-opacity="0.15"/>
<path fill-rule="evenodd" clip-rule="evenodd" d="M138.844 85.8403C137.887 82.3599 136.93 78.8716 135.972 75.3833C131.993 66.1919 123.687 57.0637 115.586 51.859C111.686 49.3594 107.026 47.0813 102.256 45.5863C73.0885 36.4503 50.5503 61.2877 43.4463 79.5598C41.872 83.6176 43.1299 87.7546 41.8799 92.6271L41.6189 92.6271C41.1838 92.5401 40.7487 92.4531 40.3136 92.3661C38.4703 85.5714 42.5603 75.1539 45.0206 70.9379C54.2763 55.0467 62.029 48.8136 81.6085 43.237C86.5529 41.8291 95.1916 43.332 98.8622 41.9319L98.3401 41.9319C91.426 38.317 79.8444 42.5489 74.2909 44.2812C55.3206 50.2058 45.2184 61.7465 40.3136 81.917C39.0716 87.0268 38.6286 102.578 41.3578 107.008C41.5319 101.787 40.2819 98.3461 40.0525 93.6792C41.1047 93.1334 41.6663 92.5955 42.4021 93.1571C43.114 94.0747 45.5348 109.001 46.5869 112.236C50.1152 123.112 60.2649 133.498 71.4193 136.805L70.114 135.238C53.6276 130.738 47.5521 113.715 43.9763 95.7753C43.6283 92.2949 43.2802 88.8066 42.9321 85.3183C48.3906 61.4617 75.2719 35.6988 106.71 48.4656C119.478 53.6545 131.329 65.3139 135.98 78.5157C143.25 99.1371 129.264 122.994 118.204 131.307C111.804 136.116 94.9226 142.436 81.8775 139.146C78.4521 138.284 76.4111 135.737 72.4714 135.223L72.7325 135.745C76.2133 137.311 79.702 138.877 83.1907 140.451C111.322 146.035 131.495 123.935 137.032 105.694C138.749 100.039 138.891 93.4577 138.86 85.8324L138.844 85.8403Z" fill="url(#paint9_radial_44_3085)" fill-opacity="0.15"/>
<path fill-rule="evenodd" clip-rule="evenodd" d="M133.354 89.2416C131.875 83.491 130.395 77.7404 128.908 71.9899C123.616 58.8593 109.613 53.1482 93.8864 50.0396C83.7762 48.0384 68.7138 49.1378 64.616 55.7902L64.616 56.0512C68.3341 55.1495 70.6758 52.0725 74.8132 51.0837C86.3156 48.3389 101.987 51.9459 110.618 55.2681C128.378 62.1024 140.395 96.5979 125.514 115.376C124.185 117.053 122.287 117.733 120.546 119.039C115.072 123.12 108.007 127.629 100.16 129.235C85.9913 132.13 67.9307 121.372 63.0417 113.818C60.8108 110.369 60.352 106.652 59.1179 102.056C57.1402 94.6837 56.3807 86.1646 59.9011 79.3224C64.3629 70.6531 74.9476 61.1136 86.2998 59.1994C100.674 56.7789 118.394 73.8804 121.844 82.9848C123.908 88.4427 123.014 94.7628 121.844 99.7065C121.06 103.021 121.883 105.655 120.277 108.328C114.399 118.074 95.9353 127.819 80.5486 121.135C71.364 117.14 65.415 108.463 61.7285 98.9234C55.0438 81.6163 77.9459 58.353 94.4006 65.211L93.8785 65.472L93.3563 66.2551C59.8062 64.8076 59.3078 101.312 80.5486 113.818C86.5767 117.362 100.397 113.533 104.598 109.895C107.295 107.561 110.903 102.435 112.176 98.9155C114.827 91.5988 114.146 82.5181 107.469 80.0976C109.17 82.2571 111.631 83.8628 112.437 86.8923C116.037 100.395 99.4952 116.405 86.8219 114.332C72.0364 111.92 60.2808 89.0438 71.4036 75.1301C75.3986 70.131 89.9151 64.6731 97.8023 66.5082C104.875 68.1535 117.619 78.1755 119.755 84.8041C121.187 89.2495 120.127 94.4938 119.233 98.3935C117.706 105.085 115.626 109.483 111.132 113.027C86.5767 132.375 52.5677 104.634 68.0098 78.0094C57.1797 84.1634 65.0353 103.63 70.0983 110.156C81.9646 125.446 107.778 123.286 117.667 107.806C119.945 104.231 121.052 96.9855 121.59 92.1287C123.244 77.1314 102.849 64.9658 90.4847 63.3838C74.1249 61.2876 56.539 78.5868 59.9011 96.5742C65.9846 129.084 108.522 133.633 123.149 104.935C124.778 101.739 127.334 98.4963 127.856 94.217L127.334 93.956L127.073 94.217C126.622 97.5313 124.502 102.072 122.366 103.883C122.824 101.122 123.932 98.4884 124.454 96.3052C128.299 80.24 111.583 66.9433 103.023 62.3317C100.247 60.8368 90.6033 56.0907 85.5087 57.6253C70.9843 62.0153 58.4297 73.0261 55.7162 88.9885C54.8144 94.2724 56.8317 98.0771 57.8047 101.534C63.3344 121.095 67.2741 121.491 84.9866 128.451C89.1319 130.081 97.027 131.703 102.762 129.757C121.756 123.302 133.591 115.345 133.346 89.2495L133.354 89.2416Z" fill="url(#paint10_radial_44_3085)" fill-opacity="0.15"/>
<path fill-rule="evenodd" clip-rule="evenodd" d="M130.482 93.1643C128.568 88.3709 126.645 83.5853 124.731 78.7919C120.071 68.2478 108.07 56.9998 95.7215 54.2234C77.1704 50.0627 63.6349 57.6168 58.3425 70.162C57.2587 72.7328 52.5358 81.3626 55.2097 85.0566L55.7319 84.7956C55.5341 62.8927 74.9237 48.9711 98.5932 56.3116C107.176 58.9694 115.799 66.8794 120.546 73.5633C122.547 77.4867 124.557 81.4022 126.558 85.3255C136.035 108.613 115.997 121.846 97.5489 126.616C93.7121 126.79 89.8832 126.964 86.0465 127.138L86.0465 127.66C109.336 130.919 130.617 114.759 130.482 93.1643Z" fill="url(#paint11_radial_44_3085)" fill-opacity="0.15"/>
<path fill-rule="evenodd" clip-rule="evenodd" d="M127.341 74.8689C123.418 69.1341 114.288 56.7154 105.911 56.312C106.86 58.772 112.247 60.2354 114.273 61.8016C119.217 65.63 123.41 70.2415 126.819 75.652L127.341 75.3909L127.341 74.8689Z" fill="url(#paint12_radial_44_3085)" fill-opacity="0.15"/>
<path fill-rule="evenodd" clip-rule="evenodd" d="M124.992 119.822C116.978 125.913 113.11 130.477 101.465 133.672C95.5556 135.294 86.8298 134.867 81.0786 133.672C75.9919 132.612 72.2263 132.51 68.5319 130.271C58.9993 124.513 51.0567 111.279 47.3623 99.952C45.44 94.059 47.0538 86.2598 47.8844 80.8731L47.1012 80.8731C40.2662 103.037 59.0784 129.622 74.8053 134.448C91.79 139.66 120.673 132.755 124.984 119.814L124.992 119.822Z" fill="url(#paint13_radial_44_3085)" fill-opacity="0.15"/>
<path fill-rule="evenodd" clip-rule="evenodd" d="M118.197 89.7632C113.387 79.5988 106.662 71.4752 95.1996 68.335L95.1996 68.596L95.4606 69.1181C103.775 72.4165 113.007 79.0451 116.369 87.4139C120.831 98.4958 109.819 111.215 103.039 114.071C98.4668 115.993 93.0478 116.515 86.5767 116.42L86.8377 116.942C106.504 117.464 118.473 109.744 118.204 89.7632L118.197 89.7632Z" fill="url(#paint14_radial_44_3085)" fill-opacity="0.15"/>
<path fill-rule="evenodd" clip-rule="evenodd" d="M109.566 89.7632C108.339 86.9156 108.118 84.1708 106.433 81.9244C98.6249 71.5227 79.5754 64.6806 71.4113 79.3141C72.2815 78.531 73.1517 77.7479 74.0219 76.9648C78.0565 75.011 80.1846 71.325 86.3076 71.2142L86.3076 71.4753L86.0465 71.9973C77.2812 73.5081 65.5652 82.9289 68.5318 94.4696L69.0539 94.7307L69.315 94.7307C68.247 70.9057 99.3448 66.1835 107.477 86.1088C114.439 103.155 92.3594 116.198 79.5121 106.232C67.3768 96.8189 72.5584 79.3299 87.0908 76.7038C91.1253 75.976 94.9463 77.8507 97.8101 78.531L97.0269 76.9648C83.0404 74.1647 70.1456 79.3615 72.1945 94.7386C72.6138 97.8472 72.3527 99.7773 74.0219 102.055C84.67 116.546 110.048 112.647 109.566 89.7711L109.566 89.7632Z" fill="url(#paint15_radial_44_3085)" fill-opacity="0.15"/>
<path fill-rule="evenodd" clip-rule="evenodd" d="M105.128 92.904C104.953 91.1638 104.779 89.4157 104.605 87.6755C103.316 83.9815 97.2641 79.7417 93.364 78.5315C83.3646 75.4308 72.4475 85.611 75.3271 96.5663C78.3253 107.949 107.192 107.593 102.248 89.5106C101.433 86.5206 98.7829 85.8403 96.2356 84.5431C94.6693 83.412 93.1029 82.2808 91.5286 81.1418C85.6192 79.5835 79.9154 85.2075 78.9819 89.7637C76.0786 103.923 98.2846 106.217 97.802 92.374C95.7373 87.9128 90.8879 85.2313 84.9942 86.8845C82.1226 90.6813 84.2427 100.031 90.4844 97.8636C92.5254 97.1596 92.8656 94.4306 93.6171 92.374C92.2564 91.2429 88.214 88.3795 86.2995 89.7637C88.6649 91.583 90.3578 91.4011 92.0508 93.9481C91.5049 95.712 90.8641 95.9731 89.4402 96.8194C85.4768 95.6092 82.9611 91.6542 85.7774 87.6755C90.6822 86.7579 96.7736 88.949 96.7578 94.4702C91.6157 110.314 71.2767 93.3469 83.95 83.4911C92.0903 77.1631 108.988 91.9785 98.3241 100.743C89.1475 108.281 68.9746 98.6862 77.9377 85.5872C87.1856 72.069 108.134 81.7904 103.292 101.004L104.336 100.482C104.882 98.3065 105.143 95.9019 105.12 92.904L105.128 92.904Z" fill="url(#paint16_radial_44_3085)" fill-opacity="0.15"/>
<path fill-rule="evenodd" clip-rule="evenodd" d="M103.562 4.56437C94.021 1.8196 78.571 3.14057 69.3231 5.08643C43.7313 10.4652 23.0997 23.7224 12.0798 43.7664C8.49611 50.2842 1.99335 60.9073 2.15157 68.0738C2.19903 70.3282 -0.182155 73.2707 1.10732 75.1295L1.89052 74.6075C3.979 68.9914 4.65143 62.8137 7.38069 56.0506C16.9845 32.2415 37.0624 15.5751 62.5276 7.70464C70.1696 5.34746 79.0535 6.08309 87.621 4.57228L103.562 4.57228L103.562 4.56437Z" fill="url(#paint17_radial_44_3085)" fill-opacity="0.15"/>
<path fill-rule="evenodd" clip-rule="evenodd" d="M101.726 102.831C101.196 103.298 101.544 102.831 101.204 103.614L101.726 103.353L101.726 102.831Z" fill="url(#paint18_radial_44_3085)" fill-opacity="0.15"/>
<path fill-rule="evenodd" clip-rule="evenodd" d="M90.7535 21.2942C60.6604 20.7326 41.3736 37.8499 29.5942 56.0508C28.1703 58.2577 17.2611 76.2055 21.4935 80.8803C21.6121 72.3929 25.1088 66.3971 28.2889 61.0183C38.6364 43.5372 46.9429 34.6384 66.9733 26.7838C72.2024 25.3046 77.4315 23.8254 82.6527 22.3383C84.9548 21.8558 89.2188 22.6389 90.7535 21.2942Z" fill="url(#paint19_radial_44_3085)" fill-opacity="0.15"/>
<path fill-rule="evenodd" clip-rule="evenodd" d="M90.4926 93.4258C89.3613 93.6868 88.23 93.9478 87.0909 94.2089L87.613 94.992C88.2221 94.905 88.8313 94.818 89.4404 94.7309L90.4846 94.2089L90.4846 93.4258L90.4926 93.4258Z" fill="url(#paint20_radial_44_3085)" fill-opacity="0.15"/>
<path fill-rule="evenodd" clip-rule="evenodd" d="M84.7412 57.3562C75.0741 54.8171 65.051 63.091 62.0053 69.1184C63.0495 68.1613 64.0937 67.2042 65.138 66.2471C68.1837 64.0718 71.2373 61.8886 74.283 59.7134C77.0993 58.4478 82.8426 58.4399 84.7412 57.3641L84.7412 57.3562Z" fill="url(#paint21_radial_44_3085)" fill-opacity="0.15"/>
<path fill-rule="evenodd" clip-rule="evenodd" d="M81.8618 131.315C65.067 125.533 56.3887 115.123 53.3746 95.5143L53.3746 77.4795L52.8525 77.7405C51.3257 98.5043 54.0866 115.661 68.2709 125.564C70.9448 127.431 77.1469 133.031 81.8618 131.315Z" fill="url(#paint22_radial_44_3085)" fill-opacity="0.15"/>
<path fill-rule="evenodd" clip-rule="evenodd" d="M78.9899 30.9607C73.8162 30.3358 65.2408 34.5756 60.692 36.4503C48.7149 41.3861 46.2546 46.3457 39.0003 55.5292C37.2599 57.1824 35.5116 58.8435 33.7712 60.4967C29.3569 66.3896 26.2479 72.9708 23.313 80.3587C20.0537 88.5693 19.0569 107.886 24.8793 114.071C24.1515 107.197 20.1723 101.645 21.4776 93.426C23.5819 80.2242 28.3364 68.2248 35.5907 59.9746C37.8532 57.396 40.7961 55.4659 42.9083 52.6579C45.8274 48.7661 48.0662 44.1862 52.0533 41.4177C57.053 37.9453 64.4576 35.77 70.6123 33.84C73.2703 33.0094 77.1388 32.693 78.9741 30.9686L78.9899 30.9607Z" fill="url(#paint23_radial_44_3085)" fill-opacity="0.15"/>
<path fill-rule="evenodd" clip-rule="evenodd" d="M68.2705 56.3121C61.475 56.6602 49.8381 71.4598 48.4062 76.9572C48.4932 79.4805 48.5802 82.0117 48.6673 84.535C48.6673 88.6403 47.2037 96.5266 49.1894 99.6906C49.2764 92.4608 49.3634 85.2311 49.4504 78.0014C50.3523 74.2125 58.4056 63.0277 61.214 60.7496C63.5635 59.2705 65.921 57.7913 68.2705 56.3042L68.2705 56.3121Z" fill="url(#paint24_radial_44_3085)" fill-opacity="0.15"/>
<path fill-rule="evenodd" clip-rule="evenodd" d="M68.2705 153.795C59.7188 149.753 51.0247 146.96 43.6992 141.771C26.9518 129.906 11.0588 99.0891 20.1722 69.3791C22.3635 62.2442 25.9709 55.062 29.8393 49.256C31.4927 46.7723 34.5067 44.8897 35.3295 41.6782L35.0684 41.6782L34.2852 42.2003C32.4578 44.4626 30.6225 46.7327 28.7951 48.995C24.4599 55.1806 20.7971 62.8612 18.5979 70.9453C10.2519 101.707 26.6749 132.596 45.2577 143.599C49.2527 145.964 62.5193 155.432 68.2547 153.795L68.2705 153.795Z" fill="url(#paint25_radial_44_3085)" fill-opacity="0.15"/>
<path fill-rule="evenodd" clip-rule="evenodd" d="M52.069 143.86C36.6111 136.646 28.6686 117.314 25.4093 97.8635C25.5833 91.6779 25.7574 85.4923 25.9314 79.3066L25.4093 79.5677L25.4093 80.0897C25.1482 82.9611 24.8871 85.8403 24.6261 88.7116C21.5567 107.822 31.564 123.816 39.5223 134.186C41.7848 137.137 46.9586 145.268 52.069 143.852L52.069 143.86Z" fill="url(#paint26_radial_44_3085)" fill-opacity="0.15"/>
<path fill-rule="evenodd" clip-rule="evenodd" d="M35.8598 35.667C21.4936 47.2473 13.1001 65.2504 9.46109 87.6753C7.60993 99.0894 12.4356 122.535 17.5619 126.616L17.8229 126.355C8.29028 108.249 8.67791 75.8973 19.1282 58.6693C22.1739 53.6464 35.2744 40.0571 35.8519 35.6749L35.8598 35.667Z" fill="url(#paint27_radial_44_3085)" fill-opacity="0.15"/>
<path fill-rule="evenodd" clip-rule="evenodd" d="M23.321 132.881C21.984 131.149 21.2325 128.902 19.1361 127.914L19.1361 128.175C19.6108 128.958 23.1153 133.261 23.321 132.881Z" fill="url(#paint28_radial_44_3085)" fill-opacity="0.15"/>
<path fill-rule="evenodd" clip-rule="evenodd" d="M10.2521 45.0718C7.78387 46.5035 5.62419 51.4947 5.28402 54.9988L5.80615 54.7378C6.29662 50.4506 9.12081 48.7578 10.2521 45.0718Z" fill="url(#paint29_radial_44_3085)" fill-opacity="0.15"/>
<path fill-rule="evenodd" clip-rule="evenodd" d="M7.37238 124.781C5.98006 121.736 4.58774 118.683 3.18751 115.637L2.66539 115.898L2.66539 116.159C3.94695 118.714 4.35832 124.496 7.37238 125.303L7.37238 124.781Z" fill="url(#paint30_radial_44_3085)" fill-opacity="0.15"/>
<path fill-rule="evenodd" clip-rule="evenodd" d="M2.14343 76.174C1.23368 76.0237 1.37608 76.079 0.577076 76.435C0.43468 77.8667 0.149888 78.6735 0.838137 79.5673L1.62132 79.0453C1.79536 78.0882 1.96939 77.1311 2.14343 76.174Z" fill="url(#paint31_radial_44_3085)" fill-opacity="0.15"/>
<path fill-rule="evenodd" clip-rule="evenodd" d="M2.14343 80.3584C1.53429 80.5324 0.925154 80.7064 0.316014 80.8805L0.0549528 81.4025C0.0153982 82.6919 0.0707773 83.38 0.577076 84.0128L1.62132 83.2297C1.79536 82.2726 1.96939 81.3155 2.14343 80.3584Z" fill="url(#paint32_radial_44_3085)" fill-opacity="0.15"/>
<defs>
<radialGradient id="paint0_radial_44_3085" cx="0" cy="0" r="1" gradientUnits="userSpaceOnUse" gradientTransform="translate(91.7128 83.5769) rotate(161.565) scale(91.2163 74.5648)">
<stop stop-color="#DB9D56"/>
<stop offset="1" stop-color="#75542E"/>
</radialGradient>
<radialGradient id="paint1_radial_44_3085" cx="0" cy="0" r="1" gradientTransform="matrix(-73.4093 13.2227 -20.0028 -32.4266 90.318 121.811)" gradientUnits="userSpaceOnUse">
<stop stop-color="#DB9D56"/>
<stop offset="1" stop-color="#75542E"/>
</radialGradient>
<radialGradient id="paint2_radial_44_3085" cx="0" cy="0" r="1" gradientTransform="matrix(-62.296 11.6638 -16.9746 -28.6038 100.838 52.404)" gradientUnits="userSpaceOnUse">
<stop stop-color="#DB9D56"/>
<stop offset="1" stop-color="#75542E"/>
</radialGradient>
<radialGradient id="paint3_radial_44_3085" cx="0" cy="0" r="1" gradientTransform="matrix(-65.0985 21.5681 -17.7382 -52.8925 94.9168 87.1381)" gradientUnits="userSpaceOnUse">
<stop stop-color="#DB9D56"/>
<stop offset="1" stop-color="#75542E"/>
</radialGradient>
<radialGradient id="paint4_radial_44_3085" cx="0" cy="0" r="1" gradientTransform="matrix(-1.33681 3.51208 -0.364257 -8.61284 159.864 84.7761)" gradientUnits="userSpaceOnUse">
<stop stop-color="#DB9D56"/>
<stop offset="1" stop-color="#75542E"/>
</radialGradient>
<radialGradient id="paint5_radial_44_3085" cx="0" cy="0" r="1" gradientTransform="matrix(-58.4584 18.8666 -15.9289 -46.2674 90.3811 88.2731)" gradientUnits="userSpaceOnUse">
<stop stop-color="#DB9D56"/>
<stop offset="1" stop-color="#75542E"/>
</radialGradient>
<radialGradient id="paint6_radial_44_3085" cx="0" cy="0" r="1" gradientTransform="matrix(-52.4095 11.5281 -14.2807 -28.2708 90.1674 105.906)" gradientUnits="userSpaceOnUse">
<stop stop-color="#DB9D56"/>
<stop offset="1" stop-color="#75542E"/>
</radialGradient>
<radialGradient id="paint7_radial_44_3085" cx="0" cy="0" r="1" gradientTransform="matrix(-52.3484 16.8564 -14.2641 -41.3379 86.8402 85.8346)" gradientUnits="userSpaceOnUse">
<stop stop-color="#DB9D56"/>
<stop offset="1" stop-color="#75542E"/>
</radialGradient>
<radialGradient id="paint8_radial_44_3085" cx="0" cy="0" r="1" gradientTransform="matrix(-1.33681 1.32203 -0.364258 -3.24208 139.216 67.1982)" gradientUnits="userSpaceOnUse">
<stop stop-color="#DB9D56"/>
<stop offset="1" stop-color="#75542E"/>
</radialGradient>
<radialGradient id="paint9_radial_44_3085" cx="0" cy="0" r="1" gradientTransform="matrix(-46.3309 15.9414 -12.6244 -39.0939 88.4406 86.7029)" gradientUnits="userSpaceOnUse">
<stop stop-color="#DB9D56"/>
<stop offset="1" stop-color="#75542E"/>
</radialGradient>
<radialGradient id="paint10_radial_44_3085" cx="0" cy="0" r="1" gradientTransform="matrix(-36.2471 12.8877 -9.87673 -31.6051 93.9055 86.4818)" gradientUnits="userSpaceOnUse">
<stop stop-color="#DB9D56"/>
<stop offset="1" stop-color="#75542E"/>
</radialGradient>
<radialGradient id="paint11_radial_44_3085" cx="0" cy="0" r="1" gradientTransform="matrix(-35.4173 11.8598 -9.65061 -29.0844 91.9374 87.4372)" gradientUnits="userSpaceOnUse">
<stop stop-color="#DB9D56"/>
<stop offset="1" stop-color="#75542E"/>
</radialGradient>
<radialGradient id="paint12_radial_44_3085" cx="0" cy="0" r="1" gradientTransform="matrix(-9.97634 3.05806 -2.71839 -7.49943 116.484 65.1725)" gradientUnits="userSpaceOnUse">
<stop stop-color="#DB9D56"/>
<stop offset="1" stop-color="#75542E"/>
</radialGradient>
<radialGradient id="paint13_radial_44_3085" cx="0" cy="0" r="1" gradientTransform="matrix(-36.9313 8.74761 -10.0632 -21.4522 84.799 106.219)" gradientUnits="userSpaceOnUse">
<stop stop-color="#DB9D56"/>
<stop offset="1" stop-color="#75542E"/>
</radialGradient>
<radialGradient id="paint14_radial_44_3085" cx="0" cy="0" r="1" gradientTransform="matrix(-14.7254 7.68969 -4.01241 -18.8578 102.183 90.6154)" gradientUnits="userSpaceOnUse">
<stop stop-color="#DB9D56"/>
<stop offset="1" stop-color="#75542E"/>
</radialGradient>
<radialGradient id="paint15_radial_44_3085" cx="0" cy="0" r="1" gradientTransform="matrix(-19.3238 6.27322 -5.2654 -15.3841 88.542 89.0864)" gradientUnits="userSpaceOnUse">
<stop stop-color="#DB9D56"/>
<stop offset="1" stop-color="#75542E"/>
</radialGradient>
<radialGradient id="paint16_radial_44_3085" cx="0" cy="0" r="1" gradientTransform="matrix(-14.091 4.15815 -3.83955 -10.1972 89.7921 90.0148)" gradientUnits="userSpaceOnUse">
<stop stop-color="#DB9D56"/>
<stop offset="1" stop-color="#75542E"/>
</radialGradient>
<radialGradient id="paint17_radial_44_3085" cx="0" cy="0" r="1" gradientTransform="matrix(-47.8726 11.405 -13.0445 -27.969 51.4608 36.0467)" gradientUnits="userSpaceOnUse">
<stop stop-color="#DB9D56"/>
<stop offset="1" stop-color="#75542E"/>
</radialGradient>
<radialGradient id="paint18_radial_44_3085" cx="0" cy="0" r="1" gradientTransform="matrix(-0.243057 0.123824 -0.066229 -0.30366 101.461 103.19)" gradientUnits="userSpaceOnUse">
<stop stop-color="#DB9D56"/>
<stop offset="1" stop-color="#75542E"/>
</radialGradient>
<radialGradient id="paint19_radial_44_3085" cx="0" cy="0" r="1" gradientTransform="matrix(-32.6931 9.42394 -8.90831 -23.1108 55.173 48.586)" gradientUnits="userSpaceOnUse">
<stop stop-color="#DB9D56"/>
<stop offset="1" stop-color="#75542E"/>
</radialGradient>
<radialGradient id="paint20_radial_44_3085" cx="0" cy="0" r="1" gradientTransform="matrix(-1.58355 0.247646 -0.43149 -0.607314 88.7691 94.1433)" gradientUnits="userSpaceOnUse">
<stop stop-color="#DB9D56"/>
<stop offset="1" stop-color="#75542E"/>
</radialGradient>
<radialGradient id="paint21_radial_44_3085" cx="0" cy="0" r="1" gradientTransform="matrix(-10.584 1.93431 -2.88396 -4.74362 73.2225 62.4898)" gradientUnits="userSpaceOnUse">
<stop stop-color="#DB9D56"/>
<stop offset="1" stop-color="#75542E"/>
</radialGradient>
<radialGradient id="paint22_radial_44_3085" cx="0" cy="0" r="1" gradientTransform="matrix(-13.6786 8.56356 -3.7272 -21.0009 66.9751 102.292)" gradientUnits="userSpaceOnUse">
<stop stop-color="#DB9D56"/>
<stop offset="1" stop-color="#75542E"/>
</radialGradient>
<radialGradient id="paint23_radial_44_3085" cx="0" cy="0" r="1" gradientTransform="matrix(-27.141 13.1514 -7.39546 -32.2518 49.4519 69.0037)" gradientUnits="userSpaceOnUse">
<stop stop-color="#DB9D56"/>
<stop offset="1" stop-color="#75542E"/>
</radialGradient>
<radialGradient id="paint24_radial_44_3085" cx="0" cy="0" r="1" gradientTransform="matrix(-9.3675 6.8603 -2.55249 -16.8239 58.0757 76.1815)" gradientUnits="userSpaceOnUse">
<stop stop-color="#DB9D56"/>
<stop offset="1" stop-color="#75542E"/>
</radialGradient>
<radialGradient id="paint25_radial_44_3085" cx="0" cy="0" r="1" gradientTransform="matrix(-24.1625 17.7579 -6.58389 -43.5485 41.974 93.1306)" gradientUnits="userSpaceOnUse">
<stop stop-color="#DB9D56"/>
<stop offset="1" stop-color="#75542E"/>
</radialGradient>
<radialGradient id="paint26_radial_44_3085" cx="0" cy="0" r="1" gradientTransform="matrix(-13.0394 10.232 -3.55303 -25.0924 37.878 108.953)" gradientUnits="userSpaceOnUse">
<stop stop-color="#DB9D56"/>
<stop offset="1" stop-color="#75542E"/>
</radialGradient>
<radialGradient id="paint27_radial_44_3085" cx="0" cy="0" r="1" gradientTransform="matrix(-12.4771 14.381 -3.39979 -35.2673 22.2808 77.335)" gradientUnits="userSpaceOnUse">
<stop stop-color="#DB9D56"/>
<stop offset="1" stop-color="#75542E"/>
</radialGradient>
<radialGradient id="paint28_radial_44_3085" cx="0" cy="0" r="1" gradientTransform="matrix(-1.94813 0.789206 -0.530832 -1.93541 21.2008 130.2)" gradientUnits="userSpaceOnUse">
<stop stop-color="#DB9D56"/>
<stop offset="1" stop-color="#75542E"/>
</radialGradient>
<radialGradient id="paint29_radial_44_3085" cx="0" cy="0" r="1" gradientTransform="matrix(-2.31271 1.56968 -0.630176 -3.8494 7.73511 49.6198)" gradientUnits="userSpaceOnUse">
<stop stop-color="#DB9D56"/>
<stop offset="1" stop-color="#75542E"/>
</radialGradient>
<radialGradient id="paint30_radial_44_3085" cx="0" cy="0" r="1" gradientTransform="matrix(-2.19118 1.5284 -0.597061 -3.74818 4.98767 120.066)" gradientUnits="userSpaceOnUse">
<stop stop-color="#DB9D56"/>
<stop offset="1" stop-color="#75542E"/>
</radialGradient>
<radialGradient id="paint31_radial_44_3085" cx="0" cy="0" r="1" gradientTransform="matrix(-0.813436 0.548938 -0.221648 -1.34619 1.25815 77.6862)" gradientUnits="userSpaceOnUse">
<stop stop-color="#DB9D56"/>
<stop offset="1" stop-color="#75542E"/>
</radialGradient>
<radialGradient id="paint32_radial_44_3085" cx="0" cy="0" r="1" gradientTransform="matrix(-0.976989 0.577842 -0.266213 -1.41707 1.08016 82.0327)" gradientUnits="userSpaceOnUse">
<stop stop-color="#DB9D56"/>
<stop offset="1" stop-color="#75542E"/>
</radialGradient>
</defs>
</svg>
